<?xml version="1.0" encoding="iso-8859-1"?>
<!-- Generator: Adobe Illustrator 19.0.0, SVG Export Plug-In . SVG Version: 6.00 Build 0)  -->
<svg version="1.1" id="Capa_1" xmlns="http://www.w3.org/2000/svg" xmlns:xlink="http://www.w3.org/1999/xlink" x="0px" y="0px"
	 viewBox="0 0 512 512" style="enable-background:new 0 0 512 512;" xml:space="preserve">
<path style="fill:#838D92;" d="M222.79,10.006L212.5,0.304l-10.29,9.702c-1.417,1.336-34.71,33.272-34.71,80.914v15h30v61.891h30
	V105.92h30v-15C257.5,43.278,224.207,11.342,222.79,10.006z"/>
<path style="fill:#4F565B;" d="M377.5,90.92c0-47.642-33.293-79.578-34.71-80.914L332.5,0.304l-10.29,9.702
	c-1.417,1.336-34.71,33.272-34.71,80.914v15h30v77.325h30V105.92h30V90.92z"/>
<path style="fill:#697176;" d="M420,291.696c0-90.648-73.479-164.448-164-164.987l-50,164.987l50,220h164V291.696z"/>
<path style="fill:#838D92;" d="M255.003,126.696c-72.847,0-136.718,47.608-157.804,116.653
	c-19.32,10.307-31.836,30.702-31.836,52.982v9.683C24.815,330.388,0,373.902,0,421.696v90l128-84.758l128,84.758V126.709
	C255.667,126.707,255.336,126.696,255.003,126.696z"/>
<path style="fill:#FFF0BC;" d="M128,346.938c-70.58,0-128,57.42-128,128v36.758h256v-36.758C256,404.358,198.58,346.938,128,346.938
	z"/>
<rect x="300" y="346.94" width="212" height="30"/>
<rect x="300" y="406.94" width="212" height="30"/>
<circle style="fill:#FFFFFF;" cx="225" cy="254.12" r="30"/>
<g>
	<rect x="53" y="451.7" style="fill:#838D92;" width="30" height="30"/>
	<rect x="113" y="451.7" style="fill:#838D92;" width="30" height="30"/>
	<rect x="173" y="451.7" style="fill:#838D92;" width="30" height="30"/>
</g>
<g>
</g>
<g>
</g>
<g>
</g>
<g>
</g>
<g>
</g>
<g>
</g>
<g>
</g>
<g>
</g>
<g>
</g>
<g>
</g>
<g>
</g>
<g>
</g>
<g>
</g>
<g>
</g>
<g>
</g>
</svg>
